<svg width="34" height="32" viewBox="0 0 34 32" fill="none" xmlns="http://www.w3.org/2000/svg">
<g clip-path="url(#clip0_291_19658)">
<path d="M10.7714 9.32891C10.7864 9.27617 10.8203 9.23047 10.8616 9.19531C11.2335 9.14961 11.613 9.125 12 9.125C12.387 9.125 12.7665 9.14961 13.1384 9.19531C13.1797 9.23047 13.2098 9.27617 13.2286 9.32891L13.7433 11.0059C13.8748 11.4313 14.2017 11.7477 14.5887 11.9234C14.8742 12.05 15.1447 12.1977 15.404 12.3629C15.7571 12.5914 16.2193 12.6969 16.6776 12.5914L18.4886 12.1695C18.5449 12.1555 18.6013 12.159 18.6539 12.1766C18.8568 12.4191 19.0446 12.6758 19.2137 12.943L19.3753 13.2031C19.5331 13.4668 19.6721 13.741 19.7961 14.0223C19.7848 14.075 19.7585 14.1242 19.7172 14.1629L18.4172 15.418C18.0903 15.7344 17.9588 16.1598 17.9926 16.5605C18.0039 16.7047 18.0114 16.8523 18.0114 17C18.0114 17.1477 18.0039 17.2953 17.9926 17.4395C17.9588 17.8402 18.0903 18.2656 18.4172 18.582L19.7134 19.8371C19.7547 19.8758 19.781 19.925 19.7923 19.9777C19.6683 20.259 19.5293 20.5332 19.3715 20.8004L19.2137 21.057C19.0409 21.3242 18.853 21.5773 18.6539 21.8234C18.6013 21.841 18.5449 21.841 18.4886 21.8305L16.6776 21.4086C16.2193 21.3031 15.7609 21.4086 15.404 21.6371C15.1447 21.8023 14.8742 21.95 14.5887 22.0766C14.2017 22.2488 13.8711 22.5687 13.7433 22.9941L13.2286 24.6711C13.2136 24.7238 13.1797 24.7695 13.1384 24.8047C12.7665 24.8504 12.387 24.875 12 24.875C11.613 24.875 11.2335 24.8504 10.8616 24.8047C10.8203 24.7695 10.7902 24.7238 10.7714 24.6711L10.2567 22.9941C10.1252 22.5687 9.79831 22.2523 9.41133 22.0766C9.12578 21.95 8.85527 21.8023 8.59603 21.6371C8.24286 21.4086 7.78073 21.3031 7.32236 21.4086L5.51141 21.8305C5.45505 21.8445 5.3987 21.841 5.3461 21.8234C5.14321 21.5773 4.95535 21.3242 4.78253 21.057L4.62473 20.8004C4.46693 20.5367 4.32791 20.2625 4.20393 19.9777C4.2152 19.925 4.2415 19.8758 4.28283 19.8371L5.5828 18.582C5.90967 18.2656 6.04117 17.8402 6.00735 17.4395C5.99608 17.2953 5.98857 17.1477 5.98857 17C5.98857 16.8523 5.99608 16.7047 6.00735 16.5605C6.04117 16.1598 5.90967 15.7344 5.5828 15.418L4.28658 14.1594C4.24525 14.1207 4.21895 14.0715 4.20768 14.0187C4.33167 13.7375 4.47068 13.4633 4.62848 13.1961L4.78628 12.9395C4.95911 12.6723 5.14697 12.4191 5.34985 12.173C5.40245 12.1555 5.45881 12.1555 5.51517 12.166L7.32611 12.5879C7.78448 12.6934 8.24286 12.5879 8.59978 12.3594C8.85903 12.1941 9.12954 12.0465 9.41508 11.9199C9.80207 11.7477 10.1327 11.4277 10.2604 11.0023L10.7752 9.32539L10.7714 9.32891ZM12 8C11.5116 8 11.0269 8.03516 10.5573 8.10195C10.4934 8.1125 10.4295 8.13008 10.3694 8.1582C10.0125 8.33047 9.73444 8.63633 9.61797 9.01953L9.10324 10.6965C9.0807 10.7738 9.00931 10.8547 8.89284 10.9074C8.55094 11.0586 8.22407 11.2379 7.91598 11.4348C7.81078 11.5016 7.69807 11.5191 7.61541 11.498L5.80447 11.0762C5.39494 10.9812 4.97414 11.0551 4.636 11.2555C4.57964 11.2871 4.5308 11.3293 4.48947 11.3785C4.22271 11.6914 3.97474 12.0184 3.75307 12.3629L3.74931 12.3734L3.584 12.6406L3.58024 12.6512C3.37735 12.9957 3.19701 13.3508 3.04297 13.7199C3.02043 13.7762 3.0054 13.8359 3.00164 13.8957C2.98285 14.2754 3.12563 14.6551 3.42244 14.9434L4.71865 16.1984C4.77877 16.2582 4.8201 16.3531 4.80883 16.4727C4.7938 16.6484 4.78628 16.8242 4.78628 17C4.78628 17.1758 4.7938 17.3551 4.80883 17.5273C4.8201 17.6469 4.77877 17.7453 4.71865 17.8016L3.42244 19.0602C3.12563 19.3484 2.98285 19.7281 3.00164 20.1078C3.0054 20.1676 3.02043 20.2273 3.04297 20.2836C3.19701 20.6527 3.37735 21.0078 3.58024 21.3523L3.584 21.3629L3.74931 21.6301L3.75307 21.6406C3.97474 21.9852 4.21895 22.3156 4.48947 22.6285C4.5308 22.6777 4.57964 22.7199 4.636 22.7516C4.97414 22.952 5.39494 23.0258 5.80447 22.9309L7.61541 22.509C7.69807 22.4879 7.81078 22.5055 7.91598 22.5723C8.22407 22.7727 8.55094 22.9484 8.89284 23.0996C9.00931 23.1523 9.07694 23.2332 9.10324 23.3105L9.61797 24.9805C9.73444 25.3602 10.0125 25.666 10.3694 25.8418C10.4295 25.8699 10.4896 25.891 10.5573 25.898C11.0269 25.9648 11.5116 26 12 26C12.4884 26 12.9731 25.9648 13.4427 25.898C13.5066 25.8875 13.5705 25.8699 13.6306 25.8418C13.9875 25.6695 14.2656 25.3637 14.382 24.9805L14.8968 23.3035C14.9193 23.2262 14.9907 23.1453 15.1072 23.0926C15.4491 22.9414 15.7759 22.7621 16.084 22.5652C16.1892 22.4984 16.3019 22.4809 16.3846 22.502L18.1955 22.9238C18.6051 23.0188 19.0259 22.9484 19.364 22.7445C19.4204 22.7129 19.4692 22.6707 19.5105 22.6215C19.7773 22.3086 20.0215 21.9816 20.2432 21.6371L20.2507 21.6266L20.416 21.3594L20.4198 21.3488C20.6226 21.0078 20.803 20.6492 20.957 20.2801C20.9796 20.2238 20.9946 20.1641 20.9984 20.1043C21.0171 19.7246 20.8744 19.3449 20.5776 19.0566L19.2813 17.8016C19.2212 17.7418 19.1799 17.6469 19.1912 17.5273C19.2062 17.3516 19.2137 17.1758 19.2137 17C19.2137 16.8242 19.2062 16.6449 19.1912 16.4727C19.1799 16.3531 19.2212 16.2547 19.2813 16.1984L20.5776 14.9434C20.8744 14.6551 21.0171 14.2754 20.9984 13.8957C20.9946 13.8359 20.9796 13.7762 20.957 13.7199C20.803 13.3508 20.6226 12.9957 20.4198 12.6512L20.416 12.6406L20.2507 12.3734L20.2432 12.3629C20.0215 12.0184 19.7773 11.6879 19.5105 11.3785C19.4692 11.3293 19.4204 11.2871 19.364 11.2555C19.0259 11.0551 18.6051 10.9812 18.1955 11.0762L16.3846 11.498C16.3019 11.5191 16.1892 11.5016 16.084 11.4348C15.7759 11.2344 15.4491 11.0586 15.1072 10.9074C14.9907 10.8547 14.9231 10.7738 14.8968 10.6965L14.382 9.01953C14.2656 8.63984 13.9875 8.33398 13.6306 8.1582C13.5705 8.13008 13.5104 8.10898 13.4427 8.10195C12.9731 8.03516 12.4884 8 12 8ZM9.896 17C9.896 15.9127 10.838 15.0312 12 15.0312C13.162 15.0312 14.104 15.9127 14.104 17C14.104 18.0873 13.162 18.9688 12 18.9688C10.838 18.9688 9.896 18.0873 9.896 17ZM15.3063 17C15.3063 15.2914 13.826 13.9062 12 13.9062C10.174 13.9062 8.69371 15.2914 8.69371 17C8.69371 18.7086 10.174 20.0938 12 20.0938C13.826 20.0938 15.3063 18.7086 15.3063 17Z" fill="#646464"/>
<path d="M19.0029 2C19.4182 2 19.8005 2.24127 19.9746 2.62305L24.207 11.792L33.377 16.0254C33.7585 16.1995 33.9998 16.581 34 16.9961C34 17.4113 33.7587 17.7936 33.377 17.9678L24.2139 22.2139L19.9746 31.3838C19.8004 31.7655 19.4181 32.0068 19.0029 32.0068C18.5879 32.0067 18.2064 31.7653 18.0322 31.3838L15.6797 26.2969C16.3517 26.0307 16.9887 25.6963 17.5801 25.2979L19.0029 28.376L22.4326 20.9551C22.5398 20.7207 22.7274 20.5398 22.9551 20.4326L30.376 17.0029L22.9551 13.5742C22.7207 13.4671 22.5398 13.2794 22.4326 13.0518L19.0029 5.62988L17.583 8.70215C16.992 8.30375 16.3551 7.96942 15.6836 7.70312L18.0322 2.62305C18.2063 2.24135 18.5878 2.00011 19.0029 2Z" fill="#646464"/>
</g>
<defs>
<clipPath id="clip0_291_19658">
<rect width="34" height="32" fill="white"/>
</clipPath>
</defs>
</svg>
