<svg width="34" height="32" viewBox="0 0 34 32" fill="none" xmlns="http://www.w3.org/2000/svg">
<path d="M9.51591 16.1653C8.26935 16.1653 7.24944 15.7842 6.45617 15.0221C5.6629 14.26 5.26627 13.2802 5.26627 12.0826C5.26627 10.8851 5.6629 9.90523 6.45617 9.14314C7.24944 8.38105 8.26935 8 9.51591 8C10.7625 8 11.7824 8.38105 12.5757 9.14314C13.3689 9.90523 13.7655 10.8851 13.7655 12.0826C13.7655 13.2802 13.3689 14.26 12.5757 15.0221C11.7824 15.7842 10.7625 16.1653 9.51591 16.1653ZM0.450012 24.9021V22.3436C0.450012 21.6541 0.629441 21.0644 0.9883 20.5745C1.34716 20.0846 1.8099 19.7126 2.37652 19.4586C3.64196 18.9142 4.85547 18.506 6.01704 18.2338C7.17861 17.9616 8.3449 17.8255 9.51591 17.8255C10.6869 17.8255 11.8485 17.9662 13.0006 18.2474C14.1527 18.5287 15.3615 18.9324 16.627 19.4586C17.2125 19.7126 17.6847 20.0846 18.0435 20.5745C18.4024 21.0644 18.5818 21.6541 18.5818 22.3436V24.9021H0.450012ZM2.14987 23.269H16.882V22.3436C16.882 22.0533 16.7922 21.7766 16.6128 21.5135C16.4334 21.2504 16.2115 21.0554 15.947 20.9283C14.7382 20.3658 13.6333 19.9803 12.6323 19.7716C11.6313 19.5629 10.5925 19.4586 9.51591 19.4586C8.43933 19.4586 7.39109 19.5629 6.37118 19.7716C5.35126 19.9803 4.24636 20.3658 3.05646 20.9283C2.79204 21.0554 2.57483 21.2504 2.40485 21.5135C2.23486 21.7766 2.14987 22.0533 2.14987 22.3436V23.269ZM9.51591 14.5322C10.2525 14.5322 10.8616 14.3009 11.3433 13.8382C11.8249 13.3755 12.0657 12.7903 12.0657 12.0826C12.0657 11.375 11.8249 10.7898 11.3433 10.3271C10.8616 9.8644 10.2525 9.63305 9.51591 9.63305C8.77931 9.63305 8.17019 9.8644 7.68857 10.3271C7.20694 10.7898 6.96613 11.375 6.96613 12.0826C6.96613 12.7903 7.20694 13.3755 7.68857 13.8382C8.17019 14.3009 8.77931 14.5322 9.51591 14.5322Z" fill="#646464"/>
<path d="M18.1984 2C18.636 2 19.0382 2.24107 19.2217 2.62277L23.682 11.7902L33.3437 16.0223C33.746 16.1964 34 16.5781 34 16.9933C34 17.4085 33.746 17.7902 33.3437 17.9643L23.6891 22.2098L19.2217 31.3772C19.0382 31.7589 18.636 32 18.1984 32C17.7608 32 17.3585 31.7589 17.175 31.3772L14.6265 26.5401H15.9263L17.8031 30.125L23.682 20.9509L32.6238 16.4643L23.6891 13.5714C23.6891 13.5714 19.3134 5.2949 18.7559 4.27679C18.1984 3.25867 14.6807 10.0669 14.6635 10.2712C14.4739 9.73182 14 9.19239 14 9.19239L17.175 2.62277C17.3585 2.24107 17.7608 2 18.1984 2ZM18.1984 5.62946L14.8531 11.3501C14.8531 11.3501 14.8531 10.7208 14.6635 10.2712C14.6807 10.0669 18.1984 3.25867 18.7559 4.27679C19.3134 5.2949 23.6891 13.5714 23.6891 13.5714L32.6238 16.4643L23.682 20.9509L17.8031 30.125L15.9263 26.5401H17.319L18.1984 28.3705L21.8118 20.9509C21.9247 20.7165 22.1223 20.5357 22.3623 20.4286L30.1819 17L22.3623 13.5714C22.1152 13.4643 21.9247 13.2768 21.8118 13.0491L18.1984 5.62946Z" fill="#646464"/>
</svg>
